<svg xmlns="http://www.w3.org/2000/svg"  viewBox="0 0 100 100" width="100px" height="100px"><path fill="#75849d" d="M70,82H31c-6.6,0-12-5.4-12-12V31c0-6.6,5.4-12,12-12h39c6.6,0,12,5.4,12,12v39 C82,76.6,76.6,82,70,82z"/><path fill="#1f212b" d="M70,83H31c-7.18,0-13-5.82-13-13V31c0-7.18,5.82-13,13-13h39c7.18,0,13,5.82,13,13v39 C83,77.18,77.179,83,70,83z M20,31v39c0,6.075,4.925,11,11,11h39c6.075,0,11-4.925,11-11V31c0-6.075-4.925-11-11-11H31 C24.924,20,20,24.925,20,31z"/><path fill="#1f212b" d="M67.162,78H33.837C27.852,78,23,73.148,23,67.163V33.837C23,27.852,27.852,23,33.837,23H67.5 c0.276,0,0.5,0.224,0.5,0.5S67.776,24,67.5,24H33.837C28.404,24,24,28.404,24,33.837v33.325C24,72.595,28.405,77,33.838,77h33.325 C72.596,77,77,72.596,77,67.163V48.5c0-0.276,0.224-0.5,0.5-0.5s0.5,0.224,0.5,0.5v18.662C78,73.148,73.147,78,67.162,78z M77.5,45.579c-0.276,0-0.5-0.224-0.5-0.5v-4c0-0.276,0.224-0.5,0.5-0.5s0.5,0.224,0.5,0.5v4C78,45.356,77.776,45.579,77.5,45.579z M77.5,39.579c-0.276,0-0.5-0.224-0.5-0.5v-2c0-0.276,0.224-0.5,0.5-0.5s0.5,0.224,0.5,0.5v2C78,39.356,77.776,39.579,77.5,39.579z"/><circle cx="50.5" cy="50.5" r="22" fill="#fff"/><circle cx="50.5" cy="50.5" r="22" fill="none" stroke="#1f212b" stroke-linecap="round" stroke-linejoin="round" stroke-miterlimit="10"/><line x1="50.5" x2="50.5" y1="69.5" y2="72.5" fill="none" stroke="#1f212b" stroke-linecap="round" stroke-linejoin="round" stroke-miterlimit="10"/><line x1="50.5" x2="50.5" y1="29" y2="31.5" fill="none" stroke="#1f212b" stroke-linecap="round" stroke-linejoin="round" stroke-miterlimit="10"/><line x1="63.758" x2="65.88" y1="64.008" y2="66.13" fill="none" stroke="#1f212b" stroke-linecap="round" stroke-linejoin="round" stroke-miterlimit="10"/><line x1="35.12" x2="36.888" y1="35.37" y2="37.138" fill="none" stroke="#1f212b" stroke-linecap="round" stroke-linejoin="round" stroke-miterlimit="10"/><line x1="37.242" x2="35.12" y1="64.008" y2="66.13" fill="none" stroke="#1f212b" stroke-linecap="round" stroke-linejoin="round" stroke-miterlimit="10"/><line x1="65.88" x2="64.112" y1="35.37" y2="37.138" fill="none" stroke="#1f212b" stroke-linecap="round" stroke-linejoin="round" stroke-miterlimit="10"/><line x1="31.75" x2="28.75" y1="50.75" y2="50.75" fill="none" stroke="#1f212b" stroke-linecap="round" stroke-linejoin="round" stroke-miterlimit="10"/><line x1="72.25" x2="69.75" y1="50.75" y2="50.75" fill="none" stroke="#1f212b" stroke-linecap="round" stroke-linejoin="round" stroke-miterlimit="10"/><polyline fill="none" stroke="#1f212b" stroke-linecap="round" stroke-linejoin="round" stroke-miterlimit="10" stroke-width="2" points="39,46 50.5,50.5 34,57"/><circle cx="50.5" cy="50.5" r="2" fill="#f69272"/><circle cx="50.5" cy="50.5" r="2" fill="none" stroke="#1f212b" stroke-linecap="round" stroke-linejoin="round" stroke-miterlimit="10"/><path fill="#f69272" d="M50.5,66.5c-0.552,0-1-0.449-1-1v-20c0-0.551,0.448-1,1-1s1,0.449,1,1v20 C51.5,66.051,51.052,66.5,50.5,66.5z"/><path fill="#1f212b" d="M50.5,45c0.276,0,0.5,0.224,0.5,0.5v20c0,0.276-0.224,0.5-0.5,0.5S50,65.776,50,65.5v-20 C50,45.224,50.224,45,50.5,45 M50.5,44c-0.827,0-1.5,0.673-1.5,1.5v20c0,0.827,0.673,1.5,1.5,1.5s1.5-0.673,1.5-1.5v-20 C52,44.673,51.327,44,50.5,44L50.5,44z"/></svg>