<svg fill="#ffffff" xmlns="http://www.w3.org/2000/svg"  viewBox="0 0 24 24" width="24px" height="24px"><path d="M 7 4 C 4.2504839 4 2 6.2504839 2 9 L 2 18 C 2 19.093063 2.9069372 20 4 20 L 20 20 C 21.093063 20 22 19.093063 22 18 L 22 9 C 22 6.2504839 19.749516 4 17 4 L 7 4 z M 7 6 C 8.6684839 6 10 7.3315161 10 9 L 10 18 L 4 18 L 4 9 C 4 7.3315161 5.3315161 6 7 6 z M 10.970703 6 L 17 6 C 18.668484 6 20 7.3315161 20 9 L 20 18 L 12 18 L 12 11 L 16 11 L 16 13 L 18 13 L 18 9 L 12 9 C 12 7.8720637 11.607252 6.8390569 10.970703 6 z M 6 9 L 6 11 L 8 11 L 8 9 L 6 9 z"/></svg>